<svg width="86" height="56" viewBox="0 0 86 56" fill="none" xmlns="http://www.w3.org/2000/svg">
<g clip-path="url(#clip0_63_18)">
<path d="M69.2778 25.8067C68.9634 25.8055 68.6517 25.8447 68.3607 25.9221C68.0696 25.9995 67.8049 26.1136 67.5817 26.2578L43 42.2644L18.4183 26.2578C17.9613 26.0029 17.3735 25.8698 16.7723 25.8849C16.171 25.9 15.6007 26.0623 15.1753 26.3393C14.7498 26.6164 14.5006 26.9877 14.4774 27.3792C14.4541 27.7707 14.6586 28.1535 15.05 28.4511L43 46.6667L70.9739 28.4511C71.3026 28.2327 71.5252 27.9561 71.6139 27.6558C71.7025 27.3555 71.6533 27.0449 71.4723 26.7627C71.2913 26.4805 70.9866 26.2394 70.5963 26.0693C70.206 25.8993 69.7474 25.8079 69.2778 25.8067Z" fill="#D7A300"/>
<path d="M69.2778 8.69554C68.9634 8.69436 68.6517 8.7336 68.3607 8.81101C68.0696 8.88842 67.8049 9.00248 67.5817 9.14665L43 25.1533L18.4183 9.14665C17.9613 8.89181 17.3735 8.75865 16.7723 8.77377C16.171 8.78889 15.6007 8.95119 15.1753 9.22822C14.7498 9.50526 14.5006 9.87663 14.4774 10.2681C14.4541 10.6596 14.6586 11.0424 15.05 11.34L43 29.5555L70.9739 11.34C71.3026 11.1216 71.5252 10.845 71.6139 10.5447C71.7025 10.2444 71.6533 9.93376 71.4723 9.6516C71.2913 9.36943 70.9866 9.12825 70.5963 8.95821C70.206 8.78817 69.7474 8.69681 69.2778 8.69554Z" fill="#D7A300"/>
</g>
<defs>
<clipPath id="clip0_63_18">
<rect width="86" height="56" fill="white" transform="matrix(1 0 0 -1 0 56)"/>
</clipPath>
</defs>
</svg>
