<svg width="265" height="182" viewBox="0 0 265 182" fill="none" xmlns="http://www.w3.org/2000/svg">
<rect width="265" height="182" rx="6" fill="#50C18D"/>
<path d="M149 154.646C179.18 154.646 203.646 130.18 203.646 100C203.646 69.82 179.18 45.3542 149 45.3542C118.82 45.3542 94.354 69.82 94.354 100C94.354 130.18 118.82 154.646 149 154.646Z" stroke="white" stroke-linecap="round" stroke-linejoin="round"/>
<path d="M161.581 87.4186C154.632 80.4697 121.321 72.3186 121.321 72.3186C121.321 72.3186 129.472 105.632 136.419 112.581C139.756 115.918 144.281 117.792 149 117.792C153.719 117.792 158.245 115.918 161.581 112.581C164.918 109.244 166.793 104.719 166.793 99.9999C166.793 95.281 164.918 90.7554 161.581 87.4186V87.4186Z" stroke="white" stroke-linecap="round" stroke-linejoin="round"/>
</svg>
